<svg version="1.1" id="Layer_1" xmlns="http://www.w3.org/2000/svg" xmlns:xlink="http://www.w3.org/1999/xlink" x="0px" y="0px"
	 width="100%" viewBox="0 0 128 128" enable-background="new 0 0 128 128" xml:space="preserve">
<path fill="#000000" opacity="1.000000" stroke="none" 
	d="
M129.000000,46.000000 
	C129.000000,72.833328 128.938126,99.167007 129.085464,125.499512 
	C129.102158,128.484451 128.483124,129.092621 125.499756,129.083740 
	C84.000137,128.960068 42.500019,129.000000 1.000013,129.000000 
	C1.000000,87.500015 1.039926,45.999908 0.916279,4.500289 
	C0.907390,1.517060 1.516688,0.906925 4.500218,0.916164 
	C44.833164,1.041062 85.166748,1.041048 125.499687,0.916186 
	C128.482956,0.906951 129.132462,1.510754 129.088409,4.501246 
	C128.887115,18.164967 129.000000,31.833315 129.000000,46.000000 
z"/>
<path fill="#FF3333" opacity="1.000000" stroke="none" 
	d="
M53.004837,77.261787 
	C55.004650,68.586563 48.961483,63.525127 45.151901,57.831970 
	C36.636456,45.106262 27.572891,32.747910 18.776752,20.208942 
	C17.048302,17.745022 18.246574,14.746576 21.199722,14.076863 
	C22.310389,13.824986 23.520674,14.001245 24.685543,14.001154 
	C51.482349,13.999036 78.279152,13.997606 105.075958,14.002748 
	C107.511017,14.003215 110.410080,13.422483 111.785439,15.933891 
	C113.178085,18.476864 111.026321,20.660681 109.690315,22.593620 
	C99.594292,37.200588 89.433075,51.763405 79.158081,66.244827 
	C77.520378,68.552994 76.925735,70.848900 76.965294,73.583061 
	C77.066391,80.572067 76.851021,87.568138 77.069214,94.551788 
	C77.160759,97.481934 76.221825,99.467453 74.122963,101.447235 
	C69.040611,106.241264 64.241066,111.333801 59.229191,116.204849 
	C58.138329,117.265060 57.330574,119.514366 55.379189,118.670372 
	C53.447678,117.834984 52.933788,115.906029 52.954082,113.675346 
	C53.063110,101.692680 53.005142,89.708488 53.004837,77.261787 
z"/>
<path fill="#000000" opacity="1.000000" stroke="none" 
	d="
M57.296425,69.430931 
	C45.660019,52.195133 34.180344,35.412094 22.498699,18.333775 
	C50.812233,18.333775 78.985504,18.333775 107.864243,18.333775 
	C102.200348,26.468512 96.666618,34.408886 91.140846,42.354797 
	C85.840523,49.976505 80.639023,57.669487 75.198265,65.189461 
	C73.538605,67.483383 72.925880,69.775200 72.965027,72.517136 
	C73.067184,79.673538 72.874954,86.835693 73.065598,93.988472 
	C73.134056,96.557167 72.360626,98.354759 70.519012,100.050316 
	C66.369209,103.870995 62.358627,107.842880 58.083706,111.390327 
	C57.035549,99.305939 57.723671,87.568130 57.502693,75.839973 
	C57.465290,73.854904 57.543247,71.868553 57.296425,69.430931 
z"/>
<path fill="#FF0000" opacity="1.000000" stroke="none" 
	d="
M57.103127,69.444817 
	C58.692207,70.093864 57.955101,71.735359 57.961655,73.115067 
	C58.020214,85.442574 57.985806,97.770531 57.927391,110.562889 
	C57.876019,111.027428 57.945477,110.928734 58.002697,110.947891 
	C57.922379,111.234756 57.784843,111.502472 57.392014,111.397835 
	C57.113335,97.320808 57.089947,83.616135 57.103127,69.444817 
z"/>
<path fill="#000000" opacity="1.000000" stroke="none" 
	d="
M57.095284,111.377579 
	C57.136719,111.025482 57.596321,110.965080 57.828117,110.966064 
	C58.968266,111.272049 58.657612,111.753914 58.187656,112.164230 
	C57.597038,112.679909 57.178871,112.535278 57.095284,111.377579 
z"/>
<path fill="#FF0A0A" opacity="1.000000" stroke="none" 
	d="
M63.316730,58.295921 
	C61.783310,59.317360 60.616657,60.253048 59.307014,60.898705 
	C55.871113,62.592613 54.045387,61.557888 54.023708,57.807045 
	C53.960236,46.824589 53.943741,35.841064 54.033154,24.858967 
	C54.064426,21.018126 56.738575,19.503649 60.024136,21.659582 
	C67.653084,26.665573 75.198029,31.814018 82.579330,37.176819 
	C86.212624,39.816536 85.950592,42.679234 82.150856,45.360466 
	C76.029831,49.679680 69.801399,53.846684 63.316730,58.295921 
z"/>
</svg>