<?xml version="1.0" encoding="UTF-8"?>
<svg version="1.1" xmlns="http://www.w3.org/2000/svg" width="128" height="128">
<path d="M0 0 C0.84575089 0.00202423 1.69150177 0.00404846 2.56288147 0.00613403 C3.89205345 0.00350555 3.89205345 0.00350555 5.24807739 0.00082397 C8.19222442 -0.00359583 11.13631191 -0.0006561 14.08045959 0.00271606 C16.11687736 0.00204306 18.15329504 0.00107307 20.18971252 -0.00018311 C24.46368675 -0.00166025 28.73764013 0.00049502 33.01161194 0.00515747 C38.50329498 0.01085477 43.99492916 0.00757585 49.48661041 0.00158501 C53.69348014 -0.00202015 57.90033818 -0.00088223 62.10720825 0.0017128 C64.13271083 0.00238219 66.15821446 0.00155321 68.18371582 -0.00076675 C71.00935189 -0.00329254 73.83490766 0.00054626 76.66053772 0.00613403 C77.5062886 0.0041098 78.35203949 0.00208557 79.22341919 0 C84.99744719 0.02126616 84.99744719 0.02126616 86.11170959 1.13552856 C86.48259288 5.05049967 85.90920555 7.0365057 83.61170959 10.19021606 C83.06176331 10.95898071 82.51181702 11.72774536 81.94520569 12.51980591 C81.34015198 13.34174438 80.73509827 14.16368286 80.11170959 15.01052856 C78.83234021 16.79125895 77.55372559 18.57253179 76.27577209 20.35427856 C75.59933655 21.29013794 74.922901 22.22599731 74.22596741 23.19021606 C70.58886184 28.25696452 67.04163094 33.38595503 63.48670959 38.51052856 C62.47544006 39.96241577 62.47544006 39.96241577 61.44374084 41.44363403 C60.19158479 43.24250166 58.94905368 45.04812332 57.71815491 46.86160278 C56.11170959 49.13552856 56.11170959 49.13552856 53.61952209 51.91677856 C51.48732282 56.46841639 52.1356114 60.36425874 52.4200592 65.31863403 C52.89985934 75.18723667 53.20311889 83.50914372 46.60780334 91.55740356 C41.82859519 96.54234493 36.64163883 101.00384434 31.11170959 105.13552856 C29.79170959 104.47552856 28.47170959 103.81552856 27.11170959 103.13552856 C27.19549866 101.83220581 27.27928772 100.52888306 27.36561584 99.18606567 C30.25297243 67.96156434 30.25297243 67.96156434 17.9566803 40.58914185 C16.46945791 38.94101113 14.95916863 37.31340522 13.426651 35.70730591 C9.19517705 31.00636237 5.8200664 25.68860082 2.29920959 20.44802856 C0.98433863 18.54542159 -0.33436234 16.64545274 -1.65782166 14.74880981 C-2.21058777 13.95257202 -2.76335388 13.15633423 -3.33287048 12.33596802 C-4.37580577 10.86053626 -5.46855077 9.41917302 -6.6058197 8.01516724 C-7.88829041 6.13552856 -7.88829041 6.13552856 -7.63829041 3.44802856 C-6.24034996 -0.86228781 -4.22878041 0.0155749 0 0 Z M-3.88829041 4.13552856 C1.66536013 12.90871435 1.66536013 12.90871435 7.54920959 21.38552856 C12.31549458 27.97676854 16.96999767 34.64360562 21.61170959 41.32302856 C22.67216492 42.84815063 22.67216492 42.84815063 23.75404358 44.40408325 C31.36258357 55.3580196 31.36258357 55.3580196 31.33876038 59.51516724 C31.33860931 60.39585373 31.33845825 61.27654022 31.33830261 62.18391418 C31.32798004 63.13087662 31.31765747 64.07783905 31.30702209 65.05349731 C31.3041922 66.02587845 31.3013623 66.99825958 31.29844666 68.00010681 C31.28724559 71.10787222 31.26214107 74.21535016 31.23670959 77.32302856 C31.2266797 79.4291442 31.21755387 81.53526434 31.20936584 83.64138794 C31.18730648 88.80621236 31.15277705 93.97082171 31.11170959 99.13552856 C31.56001129 98.74840195 32.00831299 98.36127533 32.47019958 97.9624176 C35.19487355 95.61694243 37.90701172 93.29396586 40.75086975 91.09280396 C44.42821925 87.98572383 46.81167959 85.69016627 47.74354553 80.86160278 C47.82660609 77.07619476 47.68859091 73.35365075 47.48670959 69.57302856 C47.27781062 57.09220648 48.98864893 49.62866644 57.32118225 40.26345825 C61.01191965 35.87724784 64.12635786 31.04860748 67.36170959 26.32302856 C69.24831889 23.62895693 71.13505872 20.9349786 73.02284241 18.24172974 C76.14426295 13.60009422 79.10865793 8.85460975 82.11170959 4.13552856 C53.73170959 4.13552856 25.35170959 4.13552856 -3.88829041 4.13552856 Z " fill="#FE3030" transform="translate(24.888290405273438,12.864471435546875)"/>
<path d="M0 0 C3.17231497 0.26790213 4.5585617 1.08210772 7.14819336 2.8972168 C7.96223633 3.46118164 8.7762793 4.02514648 9.61499023 4.60620117 C10.45223633 5.20368164 11.28948242 5.80116211 12.15209961 6.41674805 C12.98547852 6.99489258 13.81885742 7.57303711 14.67749023 8.16870117 C17.04619622 9.82585912 19.38086644 11.5233694 21.71459961 13.22924805 C22.68937256 13.88787842 22.68937256 13.88787842 23.68383789 14.55981445 C25.37475586 15.7800293 25.37475586 15.7800293 27.71459961 18.22924805 C27.6862793 21.12915039 27.6862793 21.12915039 26.71459961 24.22924805 C24.46142578 26.36328125 24.46142578 26.36328125 21.50756836 28.2800293 C20.44602539 28.97805664 19.38448242 29.67608398 18.29077148 30.39526367 C17.73446045 30.74758057 17.17814941 31.09989746 16.60498047 31.46289062 C14.90661498 32.53888734 13.22687965 33.63984428 11.54858398 34.74682617 C2.25649657 40.77853203 2.25649657 40.77853203 -1.28540039 41.22924805 C-1.94540039 40.89924805 -2.60540039 40.56924805 -3.28540039 40.22924805 C-3.31004814 34.69336271 -3.32823535 29.15750905 -3.34033203 23.62158203 C-3.34537283 21.73681075 -3.35220537 19.8520434 -3.36083984 17.96728516 C-3.37291656 15.26423169 -3.37863108 12.56122974 -3.38305664 9.8581543 C-3.38821793 9.01023819 -3.39337921 8.16232208 -3.3986969 7.28871155 C-3.39889234 5.26853736 -3.3474625 3.24846871 -3.28540039 1.22924805 C-2.28540039 0.22924805 -2.28540039 0.22924805 0 0 Z " fill="#FE0909" transform="translate(56.285400390625,19.770751953125)"/>
</svg>
